# xmcd CD database file
#
# Track frame offsets:
#	150
#	81472
#	151085
#	202983
#
# Disc length: 3365 seconds
#
# Revision: 0
# Processed by: cddbd v1.5.2PL0 Copyright (c) Steve Scherf et al.
# Submitted via: CDex 1.70beta2
#
DISCID=270d2304
DTITLE=Ani Choying Drolma - Inner Peace
DYEAR=2006
DGENRE=New Age
TTITLE0=Namo Ratna Traya Ya
TTITLE1=Om Amarani Jevan Teye Soha
TTITLE2=Om Tare Tuttare Ture Soha
TTITLE3=Om Mani Padme Hung
EXTD=YEAR: 2006
EXTT0=
EXTT1=
EXTT2=
EXTT3=
PLAYORDER=
